<svg width="64" height="64" viewBox="0 0 64 64" fill="none" xmlns="http://www.w3.org/2000/svg">
<mask id="mask0_39_4833" style="mask-type:alpha" maskUnits="userSpaceOnUse" x="0" y="0" width="64" height="64">
<circle cx="32" cy="32" r="32" fill="#FFFCED"/>
</mask>
<g mask="url(#mask0_39_4833)">
<circle cx="32" cy="32" r="32" fill="#F2F4F5"/>
<rect x="39.8618" y="8.01949" width="2.65714" height="2.65714" transform="rotate(49.2563 39.8618 8.01949)" stroke="#F59B00"/>
<circle cx="32.5714" cy="63.0857" r="32" fill="#FFD900"/>
<rect x="6.05287" y="24.7547" width="2.2532" height="2.23103" transform="rotate(49.2563 6.05287 24.7547)" stroke="#FFD900"/>
</g>
<rect x="16.1143" y="23.7714" width="31.0857" height="22.8571" fill="white"/>
<path d="M15.7334 27.0095C15.7334 26.1406 16.0786 25.3073 16.693 24.6929C17.3074 24.0784 18.1407 23.7333 19.0096 23.7333H45.2191C46.088 23.7333 46.9213 24.0784 47.5357 24.6929C48.1501 25.3073 48.4953 26.1406 48.4953 27.0095V43.3904C48.4953 44.2593 48.1501 45.0926 47.5357 45.707C46.9213 46.3214 46.088 46.6666 45.2191 46.6666H19.0096C18.1407 46.6666 17.3074 46.3214 16.693 45.707C16.0786 45.0926 15.7334 44.2593 15.7334 43.3904V27.0095Z" stroke="#4D4E50" stroke-width="2.66667" stroke-linecap="round" stroke-linejoin="round"/>
<path d="M32.1144 40.1142C34.8284 40.1142 37.0286 37.914 37.0286 35.1999C37.0286 32.4858 34.8284 30.2856 32.1144 30.2856C29.4003 30.2856 27.2001 32.4858 27.2001 35.1999C27.2001 37.914 29.4003 40.1142 32.1144 40.1142Z" stroke="#4D4E50" stroke-width="2.66667" stroke-linecap="round" stroke-linejoin="round"/>
<path d="M15.7334 30.2857C17.4712 30.2857 19.1378 29.5953 20.3666 28.3665C21.5954 27.1377 22.2858 25.4711 22.2858 23.7333M41.9429 46.6666C41.9429 44.9288 42.6333 43.2622 43.8621 42.0334C45.0909 40.8046 46.7575 40.1142 48.4953 40.1142" stroke="#4D4E50" stroke-width="2.66667" stroke-linecap="round" stroke-linejoin="round"/>
</svg>
