<svg width="70" height="70" viewBox="0 0 70 70" fill="none" xmlns="http://www.w3.org/2000/svg">
<mask id="mask0_39_4850" style="mask-type:alpha" maskUnits="userSpaceOnUse" x="0" y="0" width="70" height="70">
<circle cx="35" cy="35" r="35" fill="#FFFCED"/>
</mask>
<g mask="url(#mask0_39_4850)">
<circle cx="35" cy="35" r="35" fill="#F2F4F5"/>
<circle cx="10" cy="68" r="35" fill="#FFD900"/>
<rect x="63.6253" y="38.7052" width="2.55819" height="2.53394" transform="rotate(49.2563 63.6253 38.7052)" stroke="#FFD900"/>
</g>
<path opacity="0.16" d="M32.269 19.7191C32.6129 19.335 33.034 19.0277 33.5047 18.8174C33.9753 18.607 34.4851 18.4983 35.0007 18.4983C35.5162 18.4983 36.026 18.607 36.4967 18.8174C36.9674 19.0277 37.3884 19.335 37.7323 19.7191L39.0157 21.1527C39.3824 21.5625 39.8367 21.8845 40.3448 22.0949C40.8529 22.3053 41.4018 22.3987 41.9508 22.3682L43.8758 22.2619C44.3907 22.2335 44.9058 22.314 45.3874 22.4982C45.8691 22.6824 46.3065 22.9662 46.671 23.3309C47.0355 23.6956 47.3191 24.1331 47.503 24.6148C47.687 25.0966 47.7673 25.6117 47.7387 26.1266L47.6323 28.0497C47.6021 28.5985 47.6957 29.147 47.9061 29.6548C48.1165 30.1625 48.4383 30.6165 48.8478 30.9831L50.2815 32.2664C50.6659 32.6103 50.9734 33.0315 51.1839 33.5023C51.3945 33.9732 51.5033 34.4832 51.5033 34.999C51.5033 35.5148 51.3945 36.0248 51.1839 36.4956C50.9734 36.9665 50.6659 37.3876 50.2815 37.7316L48.8478 39.0149C48.4381 39.3817 48.1161 39.8359 47.9057 40.344C47.6953 40.8521 47.6019 41.401 47.6323 41.9501L47.7387 43.8751C47.7671 44.3899 47.6865 44.905 47.5023 45.3867C47.3181 45.8683 47.0344 46.3057 46.6697 46.6702C46.305 47.0348 45.8674 47.3183 45.3857 47.5023C44.904 47.6862 44.3889 47.7665 43.874 47.7379L41.9508 47.6316C41.4021 47.6014 40.8535 47.6949 40.3458 47.9053C39.838 48.1157 39.3841 48.4376 39.0175 48.8471L37.7342 50.2807C37.3902 50.6651 36.9691 50.9726 36.4982 51.1832C36.0274 51.3937 35.5174 51.5025 35.0016 51.5025C34.4858 51.5025 33.9758 51.3937 33.5049 51.1832C33.0341 50.9726 32.6129 50.6651 32.269 50.2807L30.9857 48.8471C30.6189 48.4373 30.1646 48.1153 29.6566 47.9049C29.1485 47.6945 28.5996 47.6011 28.0505 47.6316L26.1255 47.7379C25.6106 47.7663 25.0955 47.6857 24.6139 47.5015C24.1323 47.3173 23.6949 47.0336 23.3303 46.6689C22.9658 46.3042 22.6823 45.8667 22.4983 45.3849C22.3143 44.9032 22.234 44.3881 22.2627 43.8732L22.369 41.9501C22.3992 41.4013 22.3056 40.8527 22.0952 40.345C21.8848 39.8373 21.563 39.3833 21.1535 39.0167L19.7198 37.7334C19.3354 37.3895 19.0279 36.9683 18.8174 36.4974C18.6069 36.0266 18.498 35.5166 18.498 35.0008C18.498 34.485 18.6069 33.975 18.8174 33.5042C19.0279 33.0333 19.3354 32.6121 19.7198 32.2682L21.1535 30.9849C21.5632 30.6181 21.8852 30.1639 22.0956 29.6558C22.306 29.1477 22.3995 28.5988 22.369 28.0497L22.2627 26.1247C22.2346 25.61 22.3153 25.0951 22.4996 24.6137C22.6839 24.1323 22.9677 23.6951 23.3324 23.3308C23.6971 22.9664 24.1345 22.6831 24.6161 22.4992C25.0977 22.3154 25.6126 22.2351 26.1273 22.2637L28.0505 22.3701C28.5993 22.4002 29.1478 22.3067 29.6556 22.0963C30.1633 21.8859 30.6173 21.564 30.9838 21.1546L32.2672 19.7209L32.269 19.7191Z" fill="white"/>
<path d="M32.269 19.7191C32.6129 19.335 33.034 19.0277 33.5047 18.8174C33.9753 18.607 34.4851 18.4983 35.0007 18.4983C35.5162 18.4983 36.026 18.607 36.4967 18.8174C36.9674 19.0277 37.3884 19.335 37.7323 19.7191L39.0157 21.1527C39.3824 21.5625 39.8367 21.8845 40.3448 22.0949C40.8529 22.3053 41.4018 22.3987 41.9508 22.3682L43.8758 22.2619C44.3907 22.2335 44.9058 22.314 45.3874 22.4982C45.8691 22.6824 46.3065 22.9662 46.671 23.3309C47.0355 23.6956 47.3191 24.1331 47.503 24.6148C47.687 25.0966 47.7673 25.6117 47.7387 26.1266L47.6323 28.0497C47.6021 28.5985 47.6957 29.147 47.9061 29.6548C48.1165 30.1625 48.4383 30.6165 48.8478 30.9831L50.2815 32.2664C50.6659 32.6103 50.9734 33.0315 51.1839 33.5023C51.3945 33.9732 51.5033 34.4832 51.5033 34.999C51.5033 35.5148 51.3945 36.0248 51.1839 36.4956C50.9734 36.9665 50.6659 37.3876 50.2815 37.7316L48.8478 39.0149C48.4381 39.3817 48.1161 39.8359 47.9057 40.344C47.6953 40.8521 47.6019 41.401 47.6323 41.9501L47.7387 43.8751C47.7671 44.3899 47.6865 44.905 47.5023 45.3867C47.3181 45.8683 47.0344 46.3057 46.6697 46.6702C46.305 47.0348 45.8674 47.3183 45.3857 47.5023C44.904 47.6862 44.3889 47.7665 43.874 47.7379L41.9508 47.6316C41.4021 47.6014 40.8535 47.6949 40.3458 47.9053C39.838 48.1157 39.3841 48.4376 39.0175 48.8471L37.7342 50.2807C37.3902 50.6651 36.9691 50.9726 36.4982 51.1832C36.0274 51.3937 35.5174 51.5025 35.0016 51.5025C34.4858 51.5025 33.9758 51.3937 33.5049 51.1832C33.0341 50.9726 32.6129 50.6651 32.269 50.2807L30.9857 48.8471C30.6189 48.4373 30.1646 48.1153 29.6566 47.9049C29.1485 47.6945 28.5996 47.6011 28.0505 47.6316L26.1255 47.7379C25.6106 47.7663 25.0955 47.6857 24.6139 47.5015C24.1323 47.3173 23.6949 47.0336 23.3303 46.6689C22.9658 46.3042 22.6823 45.8667 22.4983 45.3849C22.3143 44.9032 22.234 44.3881 22.2627 43.8732L22.369 41.9501C22.3992 41.4013 22.3056 40.8527 22.0952 40.345C21.8848 39.8373 21.563 39.3833 21.1535 39.0167L19.7198 37.7334C19.3354 37.3895 19.0279 36.9683 18.8174 36.4974C18.6069 36.0266 18.498 35.5166 18.498 35.0008C18.498 34.485 18.6069 33.975 18.8174 33.5042C19.0279 33.0333 19.3354 32.6121 19.7198 32.2682L21.1535 30.9849C21.5632 30.6181 21.8852 30.1639 22.0956 29.6558C22.306 29.1477 22.3995 28.5988 22.369 28.0497L22.2627 26.1247C22.2346 25.61 22.3153 25.0951 22.4996 24.6137C22.6839 24.1323 22.9677 23.6951 23.3324 23.3308C23.6971 22.9664 24.1345 22.6831 24.6161 22.4992C25.0977 22.3154 25.6126 22.2351 26.1273 22.2637L28.0505 22.3701C28.5993 22.4002 29.1478 22.3067 29.6556 22.0963C30.1633 21.8859 30.6173 21.564 30.9838 21.1546L32.2672 19.7209L32.269 19.7191Z" fill="white" stroke="#4D4E50" stroke-width="2.66667"/>
<path d="M30.4174 30.4165H30.4357V30.4348H30.4174V30.4165ZM39.584 39.5832H39.6024V39.6015H39.584V39.5832Z" fill="white" stroke="#4D4E50" stroke-width="4" stroke-linejoin="round"/>
<path d="M40.5006 29.4999L29.5006 40.4999L40.5006 29.4999Z" fill="white"/>
<path d="M40.5006 29.4999L29.5006 40.4999" stroke="#4D4E50" stroke-width="2.66667" stroke-linecap="round" stroke-linejoin="round"/>
<rect x="48.9788" y="12.7052" width="3" height="3" transform="rotate(49.2563 48.9788 12.7052)" stroke="#F59B00"/>
</svg>
