<svg width="70" height="70" viewBox="0 0 70 70" fill="none" xmlns="http://www.w3.org/2000/svg">
<mask id="mask0_39_4889" style="mask-type:alpha" maskUnits="userSpaceOnUse" x="0" y="0" width="70" height="70">
<circle cx="35" cy="35" r="35" fill="#FFFCED"/>
</mask>
<g mask="url(#mask0_39_4889)">
<circle cx="35" cy="35" r="35" fill="#F2F4F5"/>
<circle cx="59" cy="64" r="35" fill="#FFD900"/>
<rect x="23" y="19" width="26" height="39" rx="4" fill="white"/>
<rect x="41.978" y="6.70516" width="3" height="3" transform="rotate(49.2563 41.978 6.70516)" stroke="#F59B00"/>
<rect x="15.625" y="17.7052" width="2.55819" height="2.53394" transform="rotate(49.2563 15.625 17.7052)" stroke="#FFD900"/>
</g>
<g clip-path="url(#clip0_39_4889)">
<path d="M41.5 57.5H27.3333C26.1841 57.5 25.0819 57.0435 24.2692 56.2308C23.4565 55.4181 23 54.3159 23 53.1667V22.8333C23 21.6841 23.4565 20.5819 24.2692 19.7692C25.0819 18.9565 26.1841 18.5 27.3333 18.5H44.6667C45.8159 18.5 46.9181 18.9565 47.7308 19.7692C48.5435 20.5819 49 21.6841 49 22.8333V31.5V43.5M33.8333 20.6667H38.1667M36 48.8333V48.855" stroke="#4D4E50" stroke-width="2.66667" stroke-linecap="round" stroke-linejoin="round"/>
<path d="M51.444 50.6667C51.445 49.6386 51.1064 48.6389 50.4809 47.823C49.8554 47.0071 48.978 46.4206 47.9849 46.1545C46.9918 45.8885 45.9386 45.9579 44.989 46.3519C44.0394 46.7459 43.2464 47.4424 42.7334 48.3334C42.5566 48.6398 42.5087 49.0039 42.6003 49.3456C42.692 49.6873 42.9156 49.9786 43.222 50.1554C43.5284 50.3322 43.8925 50.38 44.2342 50.2884C44.5759 50.1967 44.8672 49.9731 45.044 49.6667C45.22 49.3627 45.4727 49.1104 45.7769 48.9349C46.0812 48.7594 46.4262 48.6669 46.7774 48.6667C47.3078 48.6667 47.8165 48.8774 48.1916 49.2525C48.5666 49.6276 48.7774 50.1363 48.7774 50.6667C48.7774 51.1971 48.5666 51.7058 48.1916 52.0809C47.8165 52.456 47.3078 52.6667 46.7774 52.6667H46.7734C46.6874 52.6753 46.6025 52.6928 46.52 52.7187C46.4305 52.7278 46.3421 52.7457 46.256 52.772C46.1828 52.812 46.1136 52.8589 46.0494 52.912C45.9728 52.9538 45.9004 53.0029 45.8334 53.0587C45.7734 53.1304 45.7211 53.2081 45.6774 53.2907C45.6286 53.3507 45.5854 53.415 45.548 53.4827C45.519 53.5746 45.4998 53.6694 45.4907 53.7654C45.4678 53.8419 45.4521 53.9205 45.444 54V55.3334L45.4467 55.348V56.0027C45.4474 56.3559 45.5882 56.6943 45.8382 56.9438C46.0881 57.1933 46.4269 57.3334 46.78 57.3334H46.784C46.9591 57.333 47.1324 57.2982 47.2941 57.2309C47.4557 57.1635 47.6025 57.065 47.7261 56.941C47.8496 56.8169 47.9475 56.6697 48.0142 56.5078C48.0809 56.3459 48.115 56.1725 48.1147 55.9974L48.112 55.1147C49.0716 54.8296 49.9138 54.2431 50.5139 53.442C51.1141 52.6408 51.4402 51.6677 51.444 50.6667ZM45.84 59.72C45.6528 59.9057 45.5248 60.1428 45.4723 60.4012C45.4198 60.6596 45.4451 60.9278 45.545 61.1718C45.6449 61.4159 45.8149 61.6248 46.0336 61.7722C46.2522 61.9197 46.5097 61.9989 46.7734 62C47.1268 61.997 47.4656 61.8586 47.72 61.6134C47.9676 61.3604 48.1062 61.0206 48.1062 60.6667C48.1062 60.3128 47.9676 59.9729 47.72 59.72C47.4648 59.4822 47.1289 59.3499 46.78 59.3499C46.4311 59.3499 46.0952 59.4822 45.84 59.72Z" fill="#4D4E50"/>
</g>
<defs>
<clipPath id="clip0_39_4889">
<rect width="52" height="52" fill="white" transform="translate(10 12)"/>
</clipPath>
</defs>
</svg>
